<mxfile host="Electron" agent="Mozilla/5.0 (Windows NT 10.0; Win64; x64) AppleWebKit/537.36 (KHTML, like Gecko) draw.io/26.0.16 Chrome/132.0.6834.196 Electron/34.2.0 Safari/537.36" version="26.0.16">
  <diagram name="Page-1" id="2YBvvXClWsGukQMizWep">
    <mxGraphModel dx="989" dy="577" grid="1" gridSize="10" guides="1" tooltips="1" connect="1" arrows="1" fold="1" page="1" pageScale="1" pageWidth="850" pageHeight="1100" math="0" shadow="0">
      <root>
        <mxCell id="0" />
        <mxCell id="1" parent="0" />
        <mxCell id="aM9ryv3xv72pqoxQDRHE-1" value="Solicitar compra" style="shape=umlLifeline;perimeter=lifelinePerimeter;whiteSpace=wrap;html=1;container=0;dropTarget=0;collapsible=0;recursiveResize=0;outlineConnect=0;portConstraint=eastwest;newEdgeStyle={&quot;edgeStyle&quot;:&quot;elbowEdgeStyle&quot;,&quot;elbow&quot;:&quot;vertical&quot;,&quot;curved&quot;:0,&quot;rounded&quot;:0};" parent="1" vertex="1">
          <mxGeometry x="130" y="90" width="100" height="300" as="geometry" />
        </mxCell>
        <mxCell id="aM9ryv3xv72pqoxQDRHE-2" value="" style="html=1;points=[];perimeter=orthogonalPerimeter;outlineConnect=0;targetShapes=umlLifeline;portConstraint=eastwest;newEdgeStyle={&quot;edgeStyle&quot;:&quot;elbowEdgeStyle&quot;,&quot;elbow&quot;:&quot;vertical&quot;,&quot;curved&quot;:0,&quot;rounded&quot;:0};" parent="aM9ryv3xv72pqoxQDRHE-1" vertex="1">
          <mxGeometry x="45" y="70" width="10" height="190" as="geometry" />
        </mxCell>
        <mxCell id="aM9ryv3xv72pqoxQDRHE-5" value="Aprobacion de jefe de área y director financiero" style="shape=umlLifeline;perimeter=lifelinePerimeter;whiteSpace=wrap;html=1;container=0;dropTarget=0;collapsible=0;recursiveResize=0;outlineConnect=0;portConstraint=eastwest;newEdgeStyle={&quot;edgeStyle&quot;:&quot;elbowEdgeStyle&quot;,&quot;elbow&quot;:&quot;vertical&quot;,&quot;curved&quot;:0,&quot;rounded&quot;:0};size=50;" parent="1" vertex="1">
          <mxGeometry x="280" y="80" width="100" height="310" as="geometry" />
        </mxCell>
        <mxCell id="aM9ryv3xv72pqoxQDRHE-6" value="" style="html=1;points=[];perimeter=orthogonalPerimeter;outlineConnect=0;targetShapes=umlLifeline;portConstraint=eastwest;newEdgeStyle={&quot;edgeStyle&quot;:&quot;elbowEdgeStyle&quot;,&quot;elbow&quot;:&quot;vertical&quot;,&quot;curved&quot;:0,&quot;rounded&quot;:0};" parent="aM9ryv3xv72pqoxQDRHE-5" vertex="1">
          <mxGeometry x="45" y="80" width="10" height="180" as="geometry" />
        </mxCell>
        <mxCell id="aM9ryv3xv72pqoxQDRHE-7" value="Envío de solicitud" style="html=1;verticalAlign=bottom;endArrow=block;edgeStyle=elbowEdgeStyle;elbow=vertical;curved=0;rounded=0;" parent="1" source="aM9ryv3xv72pqoxQDRHE-2" target="aM9ryv3xv72pqoxQDRHE-6" edge="1">
          <mxGeometry relative="1" as="geometry">
            <mxPoint x="255" y="180" as="sourcePoint" />
            <Array as="points">
              <mxPoint x="240" y="170" />
            </Array>
          </mxGeometry>
        </mxCell>
        <mxCell id="4azn6LX_tZXRikYBwqYW-3" value="" style="rounded=0;whiteSpace=wrap;html=1;" vertex="1" parent="1">
          <mxGeometry x="55" y="130" width="20" height="270" as="geometry" />
        </mxCell>
        <mxCell id="4azn6LX_tZXRikYBwqYW-5" style="edgeStyle=orthogonalEdgeStyle;rounded=0;orthogonalLoop=1;jettySize=auto;html=1;entryX=0.5;entryY=0;entryDx=0;entryDy=0;" edge="1" parent="1" source="4azn6LX_tZXRikYBwqYW-4" target="4azn6LX_tZXRikYBwqYW-3">
          <mxGeometry relative="1" as="geometry" />
        </mxCell>
        <mxCell id="4azn6LX_tZXRikYBwqYW-4" value="Solicitante de compra" style="shape=umlActor;verticalLabelPosition=bottom;verticalAlign=top;html=1;outlineConnect=0;" vertex="1" parent="1">
          <mxGeometry x="50" y="10" width="30" height="60" as="geometry" />
        </mxCell>
        <mxCell id="4azn6LX_tZXRikYBwqYW-6" value="Área de compras" style="shape=umlLifeline;perimeter=lifelinePerimeter;whiteSpace=wrap;html=1;container=0;dropTarget=0;collapsible=0;recursiveResize=0;outlineConnect=0;portConstraint=eastwest;newEdgeStyle={&quot;edgeStyle&quot;:&quot;elbowEdgeStyle&quot;,&quot;elbow&quot;:&quot;vertical&quot;,&quot;curved&quot;:0,&quot;rounded&quot;:0};" vertex="1" parent="1">
          <mxGeometry x="400" y="80" width="100" height="310" as="geometry" />
        </mxCell>
        <mxCell id="4azn6LX_tZXRikYBwqYW-7" value="" style="html=1;points=[];perimeter=orthogonalPerimeter;outlineConnect=0;targetShapes=umlLifeline;portConstraint=eastwest;newEdgeStyle={&quot;edgeStyle&quot;:&quot;elbowEdgeStyle&quot;,&quot;elbow&quot;:&quot;vertical&quot;,&quot;curved&quot;:0,&quot;rounded&quot;:0};" vertex="1" parent="4azn6LX_tZXRikYBwqYW-6">
          <mxGeometry x="45" y="110" width="10" height="150" as="geometry" />
        </mxCell>
        <mxCell id="aM9ryv3xv72pqoxQDRHE-3" value="Solicitud" style="html=1;verticalAlign=bottom;startArrow=oval;endArrow=block;startSize=8;edgeStyle=elbowEdgeStyle;elbow=vertical;curved=0;rounded=0;exitX=0.869;exitY=0.14;exitDx=0;exitDy=0;exitPerimeter=0;" parent="1" target="aM9ryv3xv72pqoxQDRHE-2" edge="1" source="4azn6LX_tZXRikYBwqYW-3">
          <mxGeometry relative="1" as="geometry">
            <mxPoint x="85" y="160" as="sourcePoint" />
          </mxGeometry>
        </mxCell>
        <mxCell id="4azn6LX_tZXRikYBwqYW-8" value="Solicitud aprobada" style="html=1;verticalAlign=bottom;endArrow=block;edgeStyle=elbowEdgeStyle;elbow=vertical;curved=0;rounded=0;" edge="1" parent="1" source="aM9ryv3xv72pqoxQDRHE-6" target="4azn6LX_tZXRikYBwqYW-7">
          <mxGeometry relative="1" as="geometry">
            <mxPoint x="340" y="200" as="sourcePoint" />
            <Array as="points">
              <mxPoint x="395" y="200" />
            </Array>
            <mxPoint x="490" y="200" as="targetPoint" />
          </mxGeometry>
        </mxCell>
        <mxCell id="4azn6LX_tZXRikYBwqYW-9" value="Proveedores" style="shape=umlLifeline;perimeter=lifelinePerimeter;whiteSpace=wrap;html=1;container=0;dropTarget=0;collapsible=0;recursiveResize=0;outlineConnect=0;portConstraint=eastwest;newEdgeStyle={&quot;edgeStyle&quot;:&quot;elbowEdgeStyle&quot;,&quot;elbow&quot;:&quot;vertical&quot;,&quot;curved&quot;:0,&quot;rounded&quot;:0};" vertex="1" parent="1">
          <mxGeometry x="520" y="80" width="100" height="310" as="geometry" />
        </mxCell>
        <mxCell id="4azn6LX_tZXRikYBwqYW-10" value="" style="html=1;points=[];perimeter=orthogonalPerimeter;outlineConnect=0;targetShapes=umlLifeline;portConstraint=eastwest;newEdgeStyle={&quot;edgeStyle&quot;:&quot;elbowEdgeStyle&quot;,&quot;elbow&quot;:&quot;vertical&quot;,&quot;curved&quot;:0,&quot;rounded&quot;:0};" vertex="1" parent="4azn6LX_tZXRikYBwqYW-9">
          <mxGeometry x="45" y="120" width="10" height="170" as="geometry" />
        </mxCell>
        <mxCell id="4azn6LX_tZXRikYBwqYW-12" value="" style="endArrow=classic;html=1;rounded=0;dashed=1;" edge="1" parent="1" source="4azn6LX_tZXRikYBwqYW-7">
          <mxGeometry width="50" height="50" relative="1" as="geometry">
            <mxPoint x="465" y="250" as="sourcePoint" />
            <mxPoint x="335" y="250" as="targetPoint" />
          </mxGeometry>
        </mxCell>
        <mxCell id="4azn6LX_tZXRikYBwqYW-13" value="Orden contractal" style="edgeLabel;html=1;align=center;verticalAlign=middle;resizable=0;points=[];" vertex="1" connectable="0" parent="4azn6LX_tZXRikYBwqYW-12">
          <mxGeometry x="0.244" y="-2" relative="1" as="geometry">
            <mxPoint x="16" y="-13" as="offset" />
          </mxGeometry>
        </mxCell>
        <mxCell id="4azn6LX_tZXRikYBwqYW-14" value="Orden aprobada" style="html=1;verticalAlign=bottom;endArrow=block;edgeStyle=elbowEdgeStyle;elbow=vertical;curved=0;rounded=0;" edge="1" parent="1" target="4azn6LX_tZXRikYBwqYW-7">
          <mxGeometry relative="1" as="geometry">
            <mxPoint x="335" y="290" as="sourcePoint" />
            <Array as="points">
              <mxPoint x="400" y="290" />
            </Array>
            <mxPoint x="465" y="290" as="targetPoint" />
          </mxGeometry>
        </mxCell>
        <mxCell id="4azn6LX_tZXRikYBwqYW-15" value="Solicitud de pedido" style="html=1;verticalAlign=bottom;endArrow=block;edgeStyle=elbowEdgeStyle;elbow=vertical;curved=0;rounded=0;" edge="1" parent="1" source="4azn6LX_tZXRikYBwqYW-7" target="4azn6LX_tZXRikYBwqYW-10">
          <mxGeometry relative="1" as="geometry">
            <mxPoint x="480" y="230" as="sourcePoint" />
            <Array as="points">
              <mxPoint x="540" y="230" />
            </Array>
            <mxPoint x="570" y="230" as="targetPoint" />
          </mxGeometry>
        </mxCell>
        <mxCell id="4azn6LX_tZXRikYBwqYW-17" value="Área de almacen" style="shape=umlLifeline;perimeter=lifelinePerimeter;whiteSpace=wrap;html=1;container=0;dropTarget=0;collapsible=0;recursiveResize=0;outlineConnect=0;portConstraint=eastwest;newEdgeStyle={&quot;edgeStyle&quot;:&quot;elbowEdgeStyle&quot;,&quot;elbow&quot;:&quot;vertical&quot;,&quot;curved&quot;:0,&quot;rounded&quot;:0};" vertex="1" parent="1">
          <mxGeometry x="630" y="80" width="100" height="310" as="geometry" />
        </mxCell>
        <mxCell id="4azn6LX_tZXRikYBwqYW-18" value="" style="html=1;points=[];perimeter=orthogonalPerimeter;outlineConnect=0;targetShapes=umlLifeline;portConstraint=eastwest;newEdgeStyle={&quot;edgeStyle&quot;:&quot;elbowEdgeStyle&quot;,&quot;elbow&quot;:&quot;vertical&quot;,&quot;curved&quot;:0,&quot;rounded&quot;:0};" vertex="1" parent="4azn6LX_tZXRikYBwqYW-17">
          <mxGeometry x="45" y="160" width="10" height="150" as="geometry" />
        </mxCell>
        <mxCell id="4azn6LX_tZXRikYBwqYW-19" value="Pedido" style="html=1;verticalAlign=bottom;endArrow=block;edgeStyle=elbowEdgeStyle;elbow=vertical;curved=0;rounded=0;" edge="1" parent="1" source="4azn6LX_tZXRikYBwqYW-10" target="4azn6LX_tZXRikYBwqYW-18">
          <mxGeometry relative="1" as="geometry">
            <mxPoint x="580" y="260" as="sourcePoint" />
            <Array as="points">
              <mxPoint x="665" y="260" />
            </Array>
            <mxPoint x="690" y="260" as="targetPoint" />
          </mxGeometry>
        </mxCell>
        <mxCell id="4azn6LX_tZXRikYBwqYW-21" value="" style="endArrow=classic;html=1;rounded=0;dashed=1;" edge="1" parent="1" target="4azn6LX_tZXRikYBwqYW-10">
          <mxGeometry width="50" height="50" relative="1" as="geometry">
            <mxPoint x="679.9999999999998" y="314.6599999999999" as="sourcePoint" />
            <mxPoint x="569.9999999999998" y="314.6599999999999" as="targetPoint" />
          </mxGeometry>
        </mxCell>
        <mxCell id="4azn6LX_tZXRikYBwqYW-22" value="Comparación" style="edgeLabel;html=1;align=center;verticalAlign=middle;resizable=0;points=[];" vertex="1" connectable="0" parent="4azn6LX_tZXRikYBwqYW-21">
          <mxGeometry x="0.244" y="-2" relative="1" as="geometry">
            <mxPoint x="16" y="-13" as="offset" />
          </mxGeometry>
        </mxCell>
        <mxCell id="4azn6LX_tZXRikYBwqYW-23" value="Área de inventario" style="shape=umlLifeline;perimeter=lifelinePerimeter;whiteSpace=wrap;html=1;container=0;dropTarget=0;collapsible=0;recursiveResize=0;outlineConnect=0;portConstraint=eastwest;newEdgeStyle={&quot;edgeStyle&quot;:&quot;elbowEdgeStyle&quot;,&quot;elbow&quot;:&quot;vertical&quot;,&quot;curved&quot;:0,&quot;rounded&quot;:0};" vertex="1" parent="1">
          <mxGeometry x="740" y="80" width="100" height="330" as="geometry" />
        </mxCell>
        <mxCell id="4azn6LX_tZXRikYBwqYW-24" value="" style="html=1;points=[];perimeter=orthogonalPerimeter;outlineConnect=0;targetShapes=umlLifeline;portConstraint=eastwest;newEdgeStyle={&quot;edgeStyle&quot;:&quot;elbowEdgeStyle&quot;,&quot;elbow&quot;:&quot;vertical&quot;,&quot;curved&quot;:0,&quot;rounded&quot;:0};" vertex="1" parent="4azn6LX_tZXRikYBwqYW-23">
          <mxGeometry x="45" y="180" width="10" height="60" as="geometry" />
        </mxCell>
        <mxCell id="4azn6LX_tZXRikYBwqYW-27" value="" style="endArrow=classic;html=1;rounded=0;dashed=1;" edge="1" parent="1" source="4azn6LX_tZXRikYBwqYW-24">
          <mxGeometry width="50" height="50" relative="1" as="geometry">
            <mxPoint x="789.9999999999998" y="289.9999999999999" as="sourcePoint" />
            <mxPoint x="685" y="290.34000000000003" as="targetPoint" />
          </mxGeometry>
        </mxCell>
        <mxCell id="4azn6LX_tZXRikYBwqYW-28" value="Regristro de salida" style="edgeLabel;html=1;align=center;verticalAlign=middle;resizable=0;points=[];" vertex="1" connectable="0" parent="4azn6LX_tZXRikYBwqYW-27">
          <mxGeometry x="0.244" y="-2" relative="1" as="geometry">
            <mxPoint x="16" y="-13" as="offset" />
          </mxGeometry>
        </mxCell>
        <mxCell id="4azn6LX_tZXRikYBwqYW-29" value="" style="endArrow=classic;html=1;rounded=0;dashed=1;entryX=0.972;entryY=0.955;entryDx=0;entryDy=0;entryPerimeter=0;" edge="1" parent="1" source="4azn6LX_tZXRikYBwqYW-18" target="4azn6LX_tZXRikYBwqYW-3">
          <mxGeometry width="50" height="50" relative="1" as="geometry">
            <mxPoint x="660" y="389.65999999999997" as="sourcePoint" />
            <mxPoint x="560" y="390" as="targetPoint" />
          </mxGeometry>
        </mxCell>
        <mxCell id="4azn6LX_tZXRikYBwqYW-30" value="Entrega de item" style="edgeLabel;html=1;align=center;verticalAlign=middle;resizable=0;points=[];" vertex="1" connectable="0" parent="4azn6LX_tZXRikYBwqYW-29">
          <mxGeometry x="0.244" y="-2" relative="1" as="geometry">
            <mxPoint x="16" y="-13" as="offset" />
          </mxGeometry>
        </mxCell>
      </root>
    </mxGraphModel>
  </diagram>
</mxfile>
